<svg width="43" height="43" viewBox="0 0 43 43" fill="none" xmlns="http://www.w3.org/2000/svg">
<path d="M42.88 21.44C42.88 9.599 33.281 0 21.44 0C9.599 0 0 9.599 0 21.44C0 26.826 2.001 31.735 5.28 35.501V19.897H12.698V29.848H21.579V19.897H28.997V41.484C37.104 38.425 42.88 30.617 42.88 21.44Z" fill="#1A3078"/>
<path d="M12.698 35.589V41.004C15.37 42.2 18.323 42.88 21.44 42.88C21.487 42.88 21.533 42.873 21.58 42.873V35.589H12.698Z" fill="#1A3078"/>
<path d="M21.58 19.897V29.848H12.699V19.897H5.28003V35.501C7.31303 37.835 9.83603 39.723 12.698 41.004V35.589H21.579V42.873C24.192 42.856 26.685 42.356 28.997 41.484V19.897H21.58Z" fill="white"/>
<path d="M32.8841 7.12894C32.7781 7.14194 32.4601 7.17694 32.0581 7.21894C31.7791 7.24794 31.5071 7.27094 31.3241 7.28494C30.9611 6.62494 30.3181 6.16394 29.5141 6.16394C28.8821 6.16394 28.3681 6.35994 27.9371 6.89894C27.5751 7.35094 27.3401 7.97494 27.1111 8.29994C25.2451 10.9449 22.2701 11.4069 18.7831 11.4069C17.9791 11.4069 17.2001 11.3079 16.4481 11.1349C16.3271 11.1069 16.2081 11.2289 16.2631 11.3409C17.6741 14.1939 21.0371 16.2559 23.7691 16.7079V19.8589H24.5651V16.7909C24.6441 16.7949 24.7251 16.8029 24.8031 16.8039C25.2951 16.8069 25.7381 16.7679 26.1581 16.7059V19.8589H26.9541V16.5419C28.2431 16.1909 29.1991 15.4919 30.0271 14.4849C31.0251 13.2709 31.6081 11.1129 31.6431 9.01294C31.7731 8.87994 32.0741 8.56494 32.2761 8.29394C32.7401 7.66994 33.1041 7.10094 32.8841 7.12894ZM29.7121 8.53294C29.3701 8.53294 29.0931 8.25594 29.0931 7.91394C29.0931 7.57194 29.3701 7.29494 29.7121 7.29494C30.0541 7.29494 30.3311 7.57194 30.3311 7.91394C30.3311 8.25594 30.0541 8.53294 29.7121 8.53294Z" fill="white"/>
</svg>
