<svg width="32" height="30" viewBox="0 0 32 30" fill="none" xmlns="http://www.w3.org/2000/svg">
<path d="M8.16667 2.07068L4 7.20118V25.1579C4 25.8383 4.29266 26.4908 4.81359 26.9718C5.33453 27.4529 6.04107 27.7232 6.77778 27.7232H26.2222C26.9589 27.7232 27.6655 27.4529 28.1864 26.9718C28.7073 26.4908 29 25.8383 29 25.1579V7.20118L24.8333 2.07068H8.16667Z" stroke="#1A3078" stroke-width="2.5" stroke-linecap="round" stroke-linejoin="round"/>
<path d="M4 7.20117H29" stroke="#1A3078" stroke-width="2.5" stroke-linecap="round" stroke-linejoin="round"/>
<path d="M22.0554 12.3315C22.0554 13.6922 21.4701 14.9972 20.4283 15.9594C19.3864 16.9215 17.9733 17.462 16.4999 17.462C15.0265 17.462 13.6134 16.9215 12.5715 15.9594C11.5297 14.9972 10.9443 13.6922 10.9443 12.3315" stroke="#1A3078" stroke-width="2.5" stroke-linecap="round" stroke-linejoin="round"/>
</svg>
